<?xml version="1.0" standalone="no"?>
<!DOCTYPE svg PUBLIC "-//W3C//DTD SVG 1.1//EN" "http://www.w3.org/Graphics/SVG/1.1/DTD/svg11.dtd" >
<svg xmlns="http://www.w3.org/2000/svg">
<metadata></metadata>
<defs>
<font id="franklingothicbookcbook" horiz-adv-x="1228" >
<font-face units-per-em="2048" ascent="1638" descent="-410" />
<missing-glyph horiz-adv-x="477" />
<glyph horiz-adv-x="2048" />
<glyph horiz-adv-x="2048" />
<glyph unicode="&#xd;" horiz-adv-x="477" />
<glyph unicode=" "  horiz-adv-x="477" />
<glyph unicode="&#x09;" horiz-adv-x="477" />
<glyph unicode="&#xa0;" horiz-adv-x="477" />
<glyph unicode="!" horiz-adv-x="614" d="M178 1405h242l-74 -1055h-94zM190 0v219h218v-219h-218z" />
<glyph unicode="&#x22;" horiz-adv-x="739" d="M111 1405h192l-55 -504h-82zM436 1405h193l-56 -504h-81z" />
<glyph unicode="#" d="M74 424v129h241l60 326h-225v129h251l74 397h139l-73 -397h270l74 397h139l-74 -397h205v-129h-231l-60 -326h223v-129h-247l-82 -424h-140l82 424h-270l-82 -424h-139l82 424h-217zM455 553h270l59 326h-270z" />
<glyph unicode="$" horiz-adv-x="1193" d="M121 367l139 53q35 -98 110.5 -168t190.5 -74v486q-76 16 -145.5 40.5t-122.5 65.5t-85 100.5t-32 143.5q0 72 26.5 136t76 114.5t121 81t161.5 34.5v170h125v-170q125 -4 234.5 -69.5t162.5 -200.5l-139 -47q-29 90 -102.5 134t-155.5 48v-440q96 -16 175 -46t136.5 -77 t88 -111.5t30.5 -150.5q0 -68 -25.5 -131.5t-77.5 -114.5t-133 -86t-192 -45v-197h-127v197q-145 10 -266 90t-174 234zM328 1038q0 -84 62.5 -145.5t170.5 -69.5v422q-53 -2 -96 -19.5t-74 -46t-47 -65.5t-16 -76zM686 178q59 0 108.5 17.5t84 48t54 71.5t19.5 84 q0 63 -28.5 106.5t-69.5 71t-87 41t-81 17.5v-457z" />
<glyph unicode="%" horiz-adv-x="1486" d="M80 1057q0 78 18.5 145.5t54 116.5t89 77.5t125.5 28.5t125 -28.5t88.5 -77.5t54 -116.5t18.5 -145.5t-18.5 -145.5t-54 -117t-89 -78t-124.5 -28.5q-72 0 -125.5 28.5t-89 78t-54 117t-18.5 145.5zM207 1057q0 -78 13 -128t36 -80t51.5 -42t59.5 -12t59.5 12t51 42 t35.5 80t13 128t-13 128t-35.5 79.5t-51.5 42t-59 12.5q-31 0 -59.5 -12.5t-51.5 -42t-36 -79.5t-13 -128zM244 0l850 1405h149l-850 -1405h-149zM834 348q0 78 18 145.5t54 116.5t89.5 78t124.5 29q72 0 125 -29t89 -78t54.5 -116.5t18.5 -145.5t-18.5 -145.5t-54.5 -116.5 t-89 -77.5t-125 -28.5t-125 28.5t-89 77.5t-54 116.5t-18 145.5zM961 348q0 -78 13 -128t35.5 -79.5t51.5 -42t59 -12.5q31 0 59.5 12.5t51 42t36 79.5t13.5 128t-13.5 128t-36 80t-51 42t-59.5 12t-59.5 -12t-51 -42t-35.5 -80t-13 -128z" />
<glyph unicode="&#x26;" horiz-adv-x="1415" d="M94 393q0 33 9.5 87.5t45 114.5t106.5 118.5t194 101.5l-29 41q-47 70 -82 136.5t-35 135.5q0 53 19.5 106.5t60.5 95.5t104.5 68.5t153.5 26.5q98 0 168 -25.5t115 -66.5t66.5 -95t21.5 -110q0 -74 -28 -131t-75 -101t-109.5 -76t-131.5 -56l288 -432q20 23 48 60.5 t57 91t55.5 124t42.5 160.5l152 -31q-25 -109 -57.5 -191.5t-68.5 -144t-70 -104.5t-58 -70q41 -57 77.5 -68.5t86.5 -11.5q29 0 54 2.5t60 8.5v-148q-33 -4 -52 -6t-33.5 -4t-30 -3t-39.5 -1q-43 0 -74 9t-54.5 23.5t-42 32t-36.5 35.5l-25 23q-53 -47 -107.5 -75 t-103.5 -42t-93 -18t-77 -4q-119 0 -207 36.5t-147 95t-89 132t-30 149.5zM283 416q0 -55 19.5 -106.5t58 -91.5t97 -63.5t136.5 -23.5q98 0 162.5 34t95.5 60l-328 477q-29 -8 -59.5 -22t-65.5 -39q-53 -41 -84.5 -94t-31.5 -131zM479 1124q0 -63 32 -114.5t64 -100.5 l27 -41l41 23q41 23 83 45t73 63q16 23 26.5 51.5t10.5 63.5q0 72 -53.5 116t-137.5 44q-72 0 -119 -40t-47 -110z" />
<glyph unicode="'" horiz-adv-x="614" d="M211 1405h192l-55 -504h-82z" />
<glyph unicode="(" horiz-adv-x="569" d="M86 530q0 96 16.5 204t52 220.5t93 226t141.5 224.5h107q-84 -129 -134.5 -254t-78 -237.5t-36.5 -209t-9 -165.5q0 -72 9 -171.5t36.5 -215t79 -243.5t135.5 -259h-107q-94 115 -153.5 234.5t-93 233t-46 219t-12.5 193.5z" />
<glyph unicode=")" horiz-adv-x="569" d="M72 -350q84 131 135 259t78.5 243.5t37 215t9.5 171.5q0 70 -9.5 166t-37 208.5t-77.5 237.5t-134 254h106q84 -111 141.5 -224.5t93.5 -226t52 -220t16 -204.5q0 -88 -12 -193.5t-46 -219t-93.5 -233.5t-153.5 -234h-106z" />
<glyph unicode="*" horiz-adv-x="1118" d="M150 809l313 164l-313 164l63 104l301 -188l-14 352h118l-14 -352l301 188l64 -104l-314 -164l314 -164l-64 -104l-301 188l14 -350h-118l14 350l-301 -188z" />
<glyph unicode="+" horiz-adv-x="1316" d="M129 524v133h463v463h133v-463h463v-133h-463v-463h-133v463h-463z" />
<glyph unicode="," horiz-adv-x="528" d="M135 -248l121 248h-84v203h205v-176l-164 -275h-78z" />
<glyph unicode="-" horiz-adv-x="641" d="M102 463v127h437v-127h-437z" />
<glyph unicode="." horiz-adv-x="530" d="M152 0v231h227v-231h-227z" />
<glyph unicode="/" horiz-adv-x="1067" d="M43 -350l848 1755h139l-848 -1755h-139z" />
<glyph unicode="0" horiz-adv-x="1220" d="M84 696q0 49 5 109.5t19.5 124t37 128t59.5 124.5q66 104 164 173.5t241 69.5t241.5 -69.5t164.5 -173.5q37 -59 59.5 -124t36.5 -128.5t19.5 -124t5.5 -109.5q0 -102 -17.5 -186t-39 -145.5t-42 -100.5t-26.5 -49q-45 -74 -98.5 -120t-107.5 -71.5t-105.5 -34.5 t-90.5 -9q-41 0 -91 9t-104.5 34.5t-107.5 71.5t-98 120q-6 10 -26.5 49t-42 100.5t-39 145.5t-17.5 186zM260 709q0 -160 25.5 -258.5t58.5 -157.5q8 -16 26.5 -45t51.5 -56.5t79 -48t109 -20.5t109.5 20.5t79 48t51 56t27.5 45.5q33 59 58.5 157.5t25.5 258.5 q0 53 -5.5 113.5t-17.5 121t-34.5 116.5t-57.5 99q-45 55 -107.5 89t-128.5 34t-128 -34t-107 -89q-35 -43 -57.5 -99t-35 -116.5t-17.5 -121t-5 -113.5z" />
<glyph unicode="1" d="M156 0v152h419v1040q-125 -131 -227 -199.5t-160 -99.5v174q92 45 163 93t123 93t87 84t57 68h134v-1253h387v-152h-983z" />
<glyph unicode="2" d="M119 0v145l567 447q106 84 179 182t73 221q0 49 -20.5 104.5t-77.5 102.5q-41 35 -97.5 53.5t-124.5 18.5q-92 0 -161.5 -40t-112.5 -99q-23 -31 -40 -74t-21 -96l-164 49q12 66 38.5 124t63.5 105q76 98 179.5 140t226.5 42q74 0 158.5 -16t170.5 -82q94 -72 126 -159 t32 -162q0 -43 -11 -97.5t-44 -118t-93.5 -135t-158.5 -147.5l-465 -356h774v-152h-997z" />
<glyph unicode="3" d="M82 319l164 56q14 -53 42.5 -97.5t82.5 -80.5q59 -41 116.5 -55.5t124.5 -14.5q18 0 49 2t67 8t73 18.5t67 34.5q31 23 65 70t34 127q0 43 -12.5 76t-31 59.5t-40 44t-39.5 29.5q-12 8 -35 18.5t-56.5 19.5t-79.5 15t-110 6h-135v144h135q78 0 132.5 8t92.5 29q6 4 28 17 t43.5 36.5t38.5 58.5t17 82q0 41 -17 92.5t-75 91.5q-41 29 -94 44.5t-111 15.5q-51 0 -103 -14.5t-97 -45.5q-82 -57 -127 -153l-164 45q23 53 50.5 93t55 69.5t52 48t41.5 29.5q47 29 120.5 54t180.5 25q82 0 159.5 -20.5t141.5 -61.5q55 -37 87 -78.5t48 -82.5t20 -76 t4 -57q0 -61 -21.5 -112.5t-58 -91.5t-86 -67.5t-104.5 -40.5q78 -10 138.5 -41.5t102.5 -78t63.5 -104.5t21.5 -120q0 -102 -47 -181t-113 -126q-43 -33 -93 -53.5t-101.5 -32.5t-99.5 -16t-87 -4q-61 0 -113.5 10t-91.5 23.5t-64.5 26.5t-37.5 19q-51 31 -88 65 t-61.5 68.5t-40 67.5t-23.5 59z" />
<glyph unicode="4" d="M70 328v116l643 961h225v-934h229v-143h-229v-328h-176v328h-692zM248 471h514v797z" />
<glyph unicode="5" d="M98 311l152 51q8 -25 25.5 -56.5t54.5 -67.5q53 -53 117.5 -80t150.5 -27q88 0 155.5 27.5t118.5 89.5q35 43 58.5 98t23.5 121t-22.5 129t-75.5 113q-41 39 -100.5 65.5t-130.5 26.5q-90 0 -178.5 -44t-147.5 -136l-139 28l47 756h831l-14 -152h-690l-31 -452 q49 51 98.5 80.5t94.5 45t81.5 20.5t63.5 5q84 0 171 -27.5t159 -90.5q47 -41 77.5 -87.5t49 -93.5t25.5 -93t7 -85q0 -37 -6 -79t-21.5 -87t-43 -91t-72.5 -89q-61 -59 -157.5 -104t-239.5 -45q-66 0 -120 12t-99 31.5t-79 43t-61 46.5q-35 33 -71.5 82t-61.5 116z" />
<glyph unicode="6" d="M82 666q0 18 2 70t12 123t34 151t67 153q53 90 115.5 142.5t125 79t117.5 33.5t96 7q84 0 149.5 -18t114 -46t82 -63.5t57 -69.5t36 -64.5t18.5 -49.5l-147 -43q-35 84 -109 143.5t-197 59.5q-35 0 -75.5 -7t-83.5 -30t-84 -63.5t-74 -108.5q-33 -66 -50.5 -135.5 t-23.5 -130t-6 -105.5v-59q57 127 172 205t258 78q96 0 180 -36t145.5 -97.5t97.5 -145.5t36 -180q0 -102 -40 -190.5t-109.5 -153t-162 -100t-196.5 -35.5q-39 0 -92 7t-112.5 30.5t-118 66.5t-107.5 115q-55 82 -91 197.5t-36 269.5zM305 432q0 -63 27.5 -124.5 t75.5 -100.5q45 -37 108.5 -56.5t122.5 -19.5q70 0 130 24.5t105.5 66.5t71 100.5t25.5 126.5q0 66 -24.5 124t-66.5 101t-99.5 67.5t-125.5 24.5q-70 0 -133 -25.5t-111.5 -70.5t-77 -106.5t-28.5 -131.5z" />
<glyph unicode="7" d="M141 1253l19 152h927v-107q-123 -145 -212 -295.5t-140 -271.5q-78 -180 -114.5 -357t-32.5 -374h-180q2 197 50 414t173 444q63 115 138 219.5t134 175.5h-762z" />
<glyph unicode="8" d="M72 360q0 78 32.5 139.5t83 107.5t109 76t109.5 46q-53 18 -101.5 51t-84.5 76t-57.5 95.5t-21.5 111.5t27 122.5t85 117t150.5 88t225.5 34.5q100 0 186 -24.5t148.5 -69.5t97.5 -109.5t35 -144.5q0 -68 -23.5 -122t-62.5 -94t-87.5 -66.5t-99.5 -40.5q70 -29 130.5 -63 t105.5 -80t71.5 -103t26.5 -131q0 -76 -31.5 -147.5t-98 -127t-166 -89t-234.5 -33.5q-139 0 -242.5 32.5t-173.5 87t-104.5 122t-34.5 138.5zM248 375q0 -35 15.5 -79t55 -83t110.5 -64.5t181 -25.5q109 0 180.5 23.5t113.5 59.5t59.5 78t17.5 78q0 57 -30.5 102.5t-78 78 t-104.5 56.5t-111 42l-57 18q-57 -12 -113.5 -33.5t-101.5 -47.5q-45 -27 -72.5 -56.5t-42 -57.5t-18.5 -51.5t-4 -37.5zM313 1067q0 -25 9.5 -55.5t36 -62t75.5 -63.5t131 -57l47 -14q88 18 147.5 45t96.5 59.5t52.5 67.5t15.5 70q0 41 -16.5 82t-53.5 72.5t-96.5 51 t-145.5 19.5t-143 -20.5t-92 -52t-49.5 -69.5t-14.5 -73z" />
<glyph unicode="9" d="M82 944q0 106 41 194.5t110.5 152t162.5 99t198 35.5q92 0 161.5 -21.5t122 -53t87 -68.5t55.5 -65q33 -47 57.5 -107.5t40 -124t22.5 -127t7 -119.5q0 -133 -28.5 -266t-86.5 -231q-53 -90 -115.5 -142.5t-125 -79t-119 -33.5t-94.5 -7q-119 0 -200 33.5t-131 79.5 t-77 93t-37 76l141 51q14 -29 39 -60.5t61 -59t85 -45t114 -17.5q195 0 301 172q33 51 51.5 105.5t29 112t13.5 119.5t3 130q-57 -127 -172 -205t-258 -78q-96 0 -180.5 36t-145.5 97.5t-97 144.5t-36 179zM258 956q0 -59 22.5 -117.5t61.5 -101.5q47 -51 108.5 -74.5 t122.5 -23.5q55 0 117 20.5t114 61.5t86 103.5t34 148.5q0 72 -27 128t-73 94t-108 58.5t-134 20.5t-125.5 -23.5t-94.5 -58.5q-53 -47 -78.5 -109.5t-25.5 -126.5z" />
<glyph unicode=":" horiz-adv-x="528" d="M152 0v231h225v-231h-225zM152 809v231h225v-231h-225z" />
<glyph unicode=";" horiz-adv-x="528" d="M135 -264l123 264h-106v236h225v-211l-154 -289h-88zM152 809v231h225v-231h-225z" />
<glyph unicode="&#x3c;" d="M113 555v70l1001 424v-127l-809 -332l809 -332v-127z" />
<glyph unicode="=" horiz-adv-x="1316" d="M129 326v133h1059v-133h-1059zM129 723v133h1059v-133h-1059z" />
<glyph unicode="&#x3e;" d="M115 131v127l800 332l-800 332v127l1001 -424v-70z" />
<glyph unicode="?" horiz-adv-x="1069" d="M43 1012q12 98 52 175t103.5 130t145.5 80.5t180 27.5q125 0 212 -36.5t142.5 -94t80 -127t24.5 -137.5q0 -70 -20.5 -126t-56.5 -100t-83 -79t-100 -63q-63 -35 -97 -58.5t-50.5 -45t-19.5 -46.5t-3 -59v-105h-147v88q0 43 2 84t14 79t38.5 70.5t78.5 61.5l90 51 q31 18 61.5 41t56 51.5t41 66.5t15.5 87q0 82 -47 146q-35 47 -97.5 76.5t-146.5 29.5q-100 0 -162.5 -41t-97.5 -100q-45 -76 -55 -160zM375 0v201h209v-201h-209z" />
<glyph unicode="@" horiz-adv-x="1654" d="M86 666q0 100 20.5 184t54.5 153.5t74.5 123t83.5 94.5q117 111 255.5 157.5t297.5 46.5q102 0 186.5 -18t151 -47t116.5 -67t87 -74q70 -72 113 -172.5t43 -221.5q0 -104 -32 -201.5t-87 -162.5q-49 -55 -129 -101.5t-178 -46.5t-143.5 36t-59.5 81q-35 -41 -93.5 -79 t-144.5 -38q-49 0 -96 19.5t-82 52.5q-39 37 -60.5 97.5t-21.5 127.5q0 37 9.5 86t33 100.5t61.5 101.5t95 93q57 41 110.5 58.5t100.5 17.5q96 0 144 -41t69 -100l37 114h135l-160 -495q-4 -10 -7 -21.5t-3 -21.5q0 -35 17.5 -59.5t64.5 -24.5q61 0 115.5 29.5t91.5 76.5 q43 55 62.5 128t19.5 141q0 86 -24.5 158.5t-63.5 125.5q-68 94 -204 160t-317 66q-141 0 -249.5 -50.5t-180.5 -122.5q-57 -59 -91 -122.5t-51 -124t-22.5 -115.5t-5.5 -94q0 -53 6.5 -108.5t25 -111t52 -109.5t88.5 -103q57 -51 156.5 -95.5t251.5 -44.5q129 0 210 22.5 t116 39.5l47 -115q-18 -8 -48 -19.5t-75 -22.5t-107.5 -19t-144.5 -8q-141 0 -253 37.5t-198 101.5q-47 35 -95 85t-87 116.5t-63.5 151.5t-24.5 194zM586 596q0 -33 8 -64.5t35 -62.5q25 -29 50.5 -40t53.5 -11q59 0 97 28.5t63 61.5q27 37 48.5 79t36.5 84t22.5 82t7.5 70 q0 53 -38.5 92t-99.5 39q-35 0 -84 -14t-100 -70q-47 -51 -73.5 -128.5t-26.5 -145.5z" />
<glyph unicode="A" horiz-adv-x="1146" d="M25 0l454 1405h203l457 -1405h-193l-131 408h-504l-127 -408h-159zM352 551h420l-209 666z" />
<glyph unicode="B" horiz-adv-x="1288" d="M180 0v1405h537q27 0 63.5 -1t77.5 -8t83 -21.5t81 -41.5q47 -33 89 -96t42 -170q0 -102 -37 -162.5t-72 -89.5q-27 -23 -63.5 -40t-71.5 -27v-5q49 -10 90 -29.5t70 -43.5q53 -43 92 -115t39 -174q0 -104 -43 -178t-92 -113q-41 -33 -85 -51.5t-89 -26.5t-89 -10t-83 -2 h-539zM356 152h351q18 0 43.5 1t55.5 7t60.5 17t57.5 32q8 6 23.5 20.5t29.5 38t24.5 57t10.5 78.5q0 63 -20.5 107.5t-49.5 73.5q-29 31 -62.5 46t-67.5 23.5t-66.5 9.5t-63.5 1h-326v-512zM356 807h295q59 0 127 9t123 56q47 41 61.5 86.5t14.5 81.5q0 59 -20.5 98.5 t-61.5 67.5q-49 33 -104.5 40t-110.5 7h-324v-446z" />
<glyph unicode="C" horiz-adv-x="1236" d="M90 725q0 115 18.5 203t45 150.5t53 102.5t43.5 58q55 63 114.5 100t117 56.5t107.5 24.5t85 5q86 0 173 -23.5t173 -101.5q59 -57 103 -140t57 -183l-166 -31q-8 39 -25.5 87t-48.5 95q-51 78 -116.5 112t-153.5 34t-170 -39t-144 -148q-25 -43 -40 -93t-23 -99t-11 -95 t-3 -83q0 -92 14 -188.5t51 -174.5q20 -43 49 -83t69 -70.5t91 -50t117 -19.5q78 0 132 25.5t101 79.5q20 23 59 82t58 155l160 -35q-16 -88 -57.5 -169t-100.5 -144q-45 -47 -90 -76t-88 -44t-85 -20t-81 -5q-47 0 -104.5 7t-117 31.5t-120 72.5t-113.5 130 q-66 102 -99.5 234.5t-33.5 269.5z" />
<glyph unicode="D" horiz-adv-x="1368" d="M180 0v1405h465q45 0 100.5 -6t117 -26.5t124 -59.5t121.5 -107q20 -23 50 -64.5t56.5 -103t45 -143.5t18.5 -186q0 -102 -21.5 -210t-68.5 -198q-53 -102 -122 -162.5t-140.5 -91.5t-142 -39t-128.5 -8h-475zM356 152h246q37 0 86 4t101.5 21.5t104.5 53t95 99.5 q31 45 51.5 97t30.5 103.5t14.5 99.5t4.5 85q0 129 -36 229t-91 166q-41 49 -86.5 76.5t-90.5 43t-89 19.5t-81 4h-260v-1101z" />
<glyph unicode="E" horiz-adv-x="1161" d="M180 0v1405h889v-152h-713v-446h566v-143h-566v-512h734v-152h-910z" />
<glyph unicode="F" horiz-adv-x="1077" d="M180 0v1405h860v-152h-684v-446h568v-143h-568v-664h-176z" />
<glyph unicode="G" horiz-adv-x="1372" d="M90 688q0 57 8 121.5t24.5 129.5t41 125t59.5 110q25 35 65 78.5t100.5 81.5t140 64.5t182.5 26.5q129 0 216 -42t140 -91q51 -49 88 -118.5t51 -151.5l-166 -41q-8 47 -24.5 84t-32.5 59q-41 57 -112.5 103.5t-184.5 46.5q-66 0 -118 -18.5t-92 -47t-68.5 -62.5 t-47.5 -67q-27 -47 -43 -102t-24 -108.5t-11 -101.5t-3 -79q0 -76 9 -135t23.5 -103t27.5 -74t23 -46q23 -37 55 -73t72.5 -63.5t94 -45t118.5 -17.5q53 0 119 19.5t127 82.5t78.5 129t17.5 121v78h-354v148h531v-719h-109l-47 174q-16 -25 -47 -57.5t-84 -63.5 q-66 -37 -134.5 -50t-133.5 -13q-35 0 -84.5 5t-105.5 25.5t-116.5 61.5t-115.5 110q-41 51 -71 113.5t-48.5 128t-26.5 133.5t-8 131z" />
<glyph unicode="H" horiz-adv-x="1368" d="M180 0v1405h176v-590h656v590h176v-1405h-176v672h-656v-672h-176z" />
<glyph unicode="I" horiz-adv-x="536" d="M180 0v1405h176v-1405h-176z" />
<glyph unicode="J" horiz-adv-x="792" d="M0 8v152q49 -16 96 -22.5t84 -6.5q57 0 109.5 15.5t87.5 48.5q55 51 64.5 113.5t9.5 125.5v971h176v-946q0 -98 -13.5 -181t-72.5 -157q-111 -141 -336 -141q-76 0 -129 11t-76 17z" />
<glyph unicode="K" horiz-adv-x="1304" d="M180 0v1405h176v-813h4l625 813h195l-379 -492l489 -913h-194l-418 774l-322 -399v-375h-176z" />
<glyph unicode="L" horiz-adv-x="1044" d="M180 0v1405h176v-1253h660v-152h-836z" />
<glyph unicode="M" horiz-adv-x="1720" d="M180 0v1405h258l422 -1124h4l418 1124h258v-1405h-176v1227h-4l-451 -1227h-118l-461 1227h-2v-1227h-148z" />
<glyph unicode="N" horiz-adv-x="1392" d="M180 0v1405h221l668 -1145h4q-4 27 -6 59.5t-2 53.5v1032h147v-1405h-172l-686 1178l-30 47h-5q4 -33 6.5 -64t2.5 -63v-1098h-148z" />
<glyph unicode="O" horiz-adv-x="1335" d="M90 702q0 199 55.5 343.5t145.5 232.5q53 51 108.5 81t105.5 44t93 18t70 4t68.5 -4t93 -18t106.5 -44t108 -81q90 -88 145.5 -232.5t55.5 -343.5t-55 -343t-146 -232q-53 -51 -108 -81t-106.5 -44t-93.5 -18t-68 -4q-27 0 -70 4t-93 18t-105.5 44t-108.5 81 q-90 88 -145.5 232.5t-55.5 342.5zM279 702q0 -98 13 -171.5t32.5 -126t39 -85t31.5 -49.5q41 -53 107.5 -96t165.5 -43q98 0 164.5 43t107.5 96q12 16 31.5 49t39 85.5t33 126t13.5 171.5t-13.5 172t-33 126.5t-39 85t-31.5 49.5q-41 53 -107.5 96t-164.5 43t-165 -43 t-108 -96q-12 -16 -31.5 -49t-39 -85.5t-32.5 -126t-13 -172.5z" />
<glyph unicode="P" horiz-adv-x="1198" d="M180 0v1405h465q86 0 179.5 -15.5t172.5 -74.5q27 -20 53.5 -49t48 -68t35 -89t13.5 -114q0 -68 -14.5 -120t-36 -91t-44 -64.5t-36.5 -39.5q-47 -43 -96.5 -65.5t-96.5 -33t-91 -11.5t-81 -1h-295v-569h-176zM356 721h275q25 0 54.5 1t62 7t66.5 20.5t63 41.5 q35 33 58 86t23 122q0 78 -28.5 124t-52.5 67q-51 41 -116 52t-114 11h-291v-532z" />
<glyph unicode="Q" horiz-adv-x="1335" d="M90 702q0 197 55.5 342.5t145.5 233.5q53 51 108.5 81t105.5 44t93 18t70 4t68.5 -4t93 -18t106.5 -44t108 -81q90 -88 145.5 -232.5t55.5 -343.5t-55 -342t-146 -233q-66 -66 -130 -94.5t-107 -38.5q-1 -10 -1 -19q0 -33 11 -59q14 -33 35 -53q33 -31 69.5 -38t67.5 -7 q55 0 99.5 9t64.5 13v-147q-37 -12 -78 -19.5t-84 -7.5q-88 0 -150.5 26.5t-102.5 70.5t-58 101q-16 50 -16 104v12h-37q-82 4 -173.5 40.5t-162.5 104.5q-86 84 -143.5 231.5t-57.5 345.5zM279 702q0 -98 13 -171.5t32.5 -126t39 -85t31.5 -49.5q41 -53 107.5 -96 t165.5 -43q98 0 164.5 43t107.5 96q12 16 31.5 49t39 85.5t33 126t13.5 171.5t-13.5 172t-33 126.5t-39 85t-31.5 49.5q-41 53 -107.5 96t-164.5 43t-165 -43t-108 -96q-12 -16 -31.5 -49t-39 -85.5t-32.5 -126t-13 -172.5z" />
<glyph unicode="R" horiz-adv-x="1304" d="M180 0v1405h531q68 0 153.5 -12.5t161.5 -65.5q72 -51 113 -134t41 -181q0 -119 -64.5 -222.5t-200.5 -148.5l281 -641h-188l-260 604h-392v-604h-176zM356 756h359q88 0 144 32.5t85 71.5q25 35 36 75t11 79q0 66 -24.5 113t-59.5 73q-47 39 -100 46t-96 7h-355v-497z " />
<glyph unicode="S" horiz-adv-x="1230" d="M61 379l158 35q4 -12 13.5 -36t25.5 -51.5t41 -57t59 -56.5q72 -53 144.5 -67.5t132.5 -14.5q109 0 175.5 26.5t102 63.5t47 79t11.5 73q0 63 -28 106t-64.5 69.5t-76.5 40t-65 19.5l-233 58q-201 49 -285 144t-84 228q0 98 37 171t100.5 121t150.5 71.5t189 23.5 q129 0 217.5 -31.5t146.5 -81.5t90 -111.5t46 -119.5l-160 -43q-14 47 -41.5 90t-64.5 72q-31 25 -90.5 49.5t-157.5 24.5q-45 0 -94 -8.5t-94 -36.5q-53 -33 -76 -81t-23 -101q0 -47 20.5 -81t55.5 -57.5t81 -40t95 -28.5l209 -52q72 -16 137.5 -40.5t120.5 -69.5 q43 -35 86 -103.5t43 -173.5q0 -104 -45 -185t-110 -134q-45 -35 -92.5 -55.5t-93.5 -30.5t-89 -13t-78 -3q-39 0 -83 2t-91 11t-97 27.5t-99 53.5q-16 12 -46 35.5t-62 60.5t-62.5 89t-49.5 120z" />
<glyph unicode="T" horiz-adv-x="1015" d="M23 1253v152h970v-152h-397v-1253h-176v1253h-397z" />
<glyph unicode="U" horiz-adv-x="1286" d="M158 516v889h176v-885q0 -63 7 -141t48 -137q41 -61 110.5 -86t162.5 -25q27 0 58.5 3t65 14.5t66.5 31t59 53.5q49 61 59.5 135t10.5 152v885h147v-889q0 -43 -2 -92t-12 -98.5t-30.5 -97.5t-57.5 -93q-53 -63 -144 -109t-239 -46q-115 0 -211 28.5t-164 106.5 q-41 45 -63.5 96t-32.5 103.5t-12 103.5t-2 98z" />
<glyph unicode="V" horiz-adv-x="1132" d="M8 1405h185l389 -1159l387 1159h155l-475 -1405h-168z" />
<glyph unicode="W" horiz-adv-x="1732" d="M41 1405h184l283 -1139l301 1139h143l322 -1139l262 1139h156l-342 -1405h-176l-306 1090l-288 -1090h-177z" />
<glyph unicode="X" horiz-adv-x="1134" d="M20 0l457 733l-399 672h196l306 -520l305 520h180l-395 -649l444 -756h-196l-353 598l-364 -598h-181z" />
<glyph unicode="Y" horiz-adv-x="1069" d="M-23 1405h205l373 -647l377 647h160l-469 -813v-592h-177v592z" />
<glyph unicode="Z" horiz-adv-x="1101" d="M59 0v147l760 1106h-725v152h934v-117l-772 -1136h795v-152h-992z" />
<glyph unicode="[" horiz-adv-x="571" d="M143 -350v1755h367v-111h-223v-1534h223v-110h-367z" />
<glyph unicode="\" horiz-adv-x="1067" d="M39 1405h139l848 -1405h-139z" />
<glyph unicode="]" horiz-adv-x="571" d="M61 -240h224v1534h-224v111h367v-1755h-367v110z" />
<glyph unicode="^" horiz-adv-x="1226" d="M213 528l354 877h95l354 -877h-123l-279 682l-278 -682h-123z" />
<glyph unicode="_" horiz-adv-x="1024" d="M0 -133h1024v-127h-1024v127z" />
<glyph unicode="`" horiz-adv-x="778" d="M141 1378l70 133l412 -243l-41 -82z" />
<glyph unicode="a" horiz-adv-x="1114" d="M82 293q0 53 13.5 95t34 75t46 55.5t47.5 38.5q47 33 101.5 50.5t112 25.5t117.5 10t120 2h135v43q0 41 -6 89t-35 85q-41 53 -101.5 64.5t-115.5 11.5q-33 0 -79 -4t-90 -22.5t-79 -55.5t-43 -100l-149 24q16 84 56 139.5t97.5 87t130 45t158.5 13.5q27 0 63.5 -1 t76.5 -9t81 -23.5t76 -42.5q43 -35 65.5 -77t34 -90t13.5 -99t2 -102v-402q0 -43 5 -96t21 -123h-164q-10 57 -13 106.5t-5 88.5q-10 -23 -33.5 -59t-66.5 -70.5t-107.5 -60t-157.5 -25.5q-100 0 -164.5 28.5t-103.5 63.5q-35 31 -64.5 85t-29.5 136zM254 293 q0 -31 15.5 -71t60.5 -68q23 -16 59.5 -27.5t89.5 -11.5q78 0 142.5 32.5t105.5 83.5q41 49 61.5 115t20.5 121v51h-133q-123 0 -198 -14.5t-118 -36.5q-66 -35 -86 -84t-20 -90z" />
<glyph unicode="b" horiz-adv-x="1132" d="M166 0v1405h156v-537q16 33 42.5 68t64.5 63.5t91 47t121 18.5q104 0 172 -38t109 -83q70 -78 99.5 -189.5t29.5 -226.5q0 -106 -27 -210.5t-86 -182.5q-63 -86 -142 -120.5t-169 -34.5q-113 0 -197 52t-129 144q-23 -59 -37 -100t-24 -76h-74zM322 438q0 -72 21.5 -131 t58 -102t87 -66.5t109.5 -23.5q45 0 104.5 24.5t104.5 98.5q6 10 16.5 31.5t21.5 56t18 85t7 115.5q0 131 -23.5 198t-37.5 89q-33 53 -85 85t-130 32q-59 0 -106.5 -21.5t-81.5 -56.5q-55 -55 -69.5 -113.5t-14.5 -99.5v-201z" />
<glyph unicode="c" horiz-adv-x="987" d="M82 520q0 104 24.5 198.5t83.5 176.5q53 74 135.5 122t209.5 48q86 0 157.5 -27.5t126.5 -91.5q45 -51 70.5 -116.5t36.5 -122.5l-148 -27q-6 43 -21.5 86t-35.5 72q-23 31 -68 61.5t-123 30.5q-68 0 -116.5 -31t-83.5 -86q-43 -70 -55.5 -150.5t-12.5 -144.5 q0 -74 9.5 -127t20.5 -90t22.5 -56.5t15.5 -25.5q27 -39 74 -71.5t124 -32.5q115 0 183 86q29 35 45 80t22 90l148 -27q-10 -76 -42 -141.5t-77 -112.5q-108 -110 -280 -110h-3q-98 0 -168.5 30.5t-117.5 71.5q-78 72 -117 188.5t-39 249.5z" />
<glyph unicode="d" horiz-adv-x="1132" d="M82 514q0 147 38 256t101 174q53 57 125 89t164 32q61 0 116.5 -16.5t104.5 -55.5q47 -37 80 -88v500h156v-1405h-144v176h-4q-8 -23 -23.5 -48.5t-41.5 -51.5q-43 -43 -104.5 -69.5t-141.5 -26.5q-104 0 -181 41.5t-132 113.5q-43 57 -78 149.5t-35 229.5zM262 526 q0 -113 19.5 -180t42.5 -108q35 -59 84 -91t120 -32q70 0 124.5 29.5t88.5 72.5q29 39 49.5 96.5t20.5 110.5v219q0 55 -20.5 108.5t-53.5 90.5q-31 35 -81 61.5t-119 26.5q-61 0 -115.5 -25.5t-95.5 -91.5q-35 -53 -49.5 -126t-14.5 -161z" />
<glyph unicode="e" horiz-adv-x="1091" d="M82 514q0 104 29.5 203.5t89 176.5t151.5 124t215 47q96 0 168 -27.5t122 -72.5t82 -101.5t50.5 -115t24.5 -113.5t6 -98v-37h-758v-18q0 -44 8 -88q10 -52 27 -97q39 -94 107.5 -138t164.5 -44q86 0 137.5 29.5t79.5 60.5q23 23 38.5 52.5t25.5 57.5l151 -30 q-23 -68 -63.5 -124.5t-106.5 -103.5q-61 -41 -126.5 -59t-141.5 -18q-221 0 -354 151q-70 78 -98.5 175t-28.5 208zM270 627h570q-2 47 -14.5 99t-34.5 91q-12 20 -31 42t-46.5 39t-63.5 28.5t-81 11.5q-78 0 -135 -32t-92 -75q-33 -41 -51.5 -95t-20.5 -109z" />
<glyph unicode="f" horiz-adv-x="612" d="M16 918v126h185v29q0 33 3 72t12 77t27.5 73.5t51.5 64.5q49 43 110.5 54t106.5 11q49 0 88 -5t64 -9v-127q-45 10 -78 12t-56 2q-29 0 -64.5 -7t-64.5 -36q-29 -31 -37 -70.5t-8 -70.5v-70h246v-126h-246v-918h-155v918h-185z" />
<glyph unicode="g" horiz-adv-x="1038" d="M55 -123q0 82 44 135.5t114 75.5q-10 6 -26.5 17.5t-33 32t-28.5 49t-12 65.5q0 57 33.5 110.5t109.5 75.5v4q-49 35 -76.5 77t-41 80t-15.5 68.5t-2 45.5q0 72 29.5 136t76.5 112q18 16 44 34.5t63 33.5t83 25.5t103 10.5q78 0 132.5 -16.5t78.5 -26.5q6 61 40 106.5 t93 63.5q29 10 50.5 11t50.5 1h18t18 -2l13 -2v-127h-29q-10 0 -19.5 1t-19.5 1q-29 0 -54.5 -9t-45.5 -38q-10 -16 -19.5 -38.5t-13.5 -37.5q37 -37 57.5 -75.5t29.5 -74.5t11 -63.5t2 -42.5q0 -74 -29.5 -134t-70.5 -101q-49 -49 -118.5 -78t-151.5 -29q-20 0 -41 2t-41 6 q-16 4 -34.5 7.5t-35.5 3.5q-23 0 -47.5 -5.5t-40.5 -17.5q-39 -29 -39 -74q0 -14 5 -30.5t19.5 -29.5t42 -23.5t70.5 -12.5l217 -10q92 -4 156 -9t119 -28q84 -33 122 -96.5t38 -128.5q0 -29 -7.5 -61.5t-26 -64.5t-48 -61.5t-74.5 -52.5q-43 -23 -93 -35t-100.5 -18 t-94.5 -7t-70 -1q-231 0 -357.5 68.5t-126.5 201.5zM215 -92q0 -25 12.5 -55.5t47 -57t98 -44t168.5 -17.5q16 0 44.5 1t60.5 4t63.5 8t56.5 13q78 25 102.5 66t24.5 68q0 45 -26.5 71.5t-70.5 38.5t-101.5 16.5t-119.5 8.5l-249 12q-41 -16 -76 -48t-35 -85zM289 711 q0 -47 18.5 -95.5t48.5 -76.5q29 -29 73 -43.5t91 -14.5q76 0 121 29t67.5 66.5t29.5 76.5t7 60q0 25 -9 71.5t-52 89.5q-33 35 -74 49.5t-88 14.5q-25 0 -57.5 -5t-67.5 -26q-55 -33 -81.5 -87t-26.5 -109z" />
<glyph unicode="h" horiz-adv-x="1150" d="M166 0v1405h156v-557q45 96 130 156.5t207 60.5q98 0 158 -30.5t88 -65.5q53 -59 66.5 -135t13.5 -148v-686h-156v647q0 59 -5 115.5t-38 99.5q-16 23 -53 45.5t-102 22.5q-88 0 -142.5 -37t-82.5 -72q-49 -59 -66.5 -132t-17.5 -154v-535h-156z" />
<glyph unicode="i" horiz-adv-x="487" d="M158 1225v180h172v-180h-172zM166 0v1044h156v-1044h-156z" />
<glyph unicode="j" horiz-adv-x="485" d="M-131 -217q70 -14 119 -14q14 0 33.5 1t40 7t40 18t33.5 35t21.5 56.5t7.5 95.5v1062h155v-1054q0 -39 -3 -82t-15 -85t-36.5 -80t-67.5 -62q-37 -23 -86.5 -31t-96.5 -8q-35 0 -72.5 4t-72.5 14v123zM156 1225v180h172v-180h-172z" />
<glyph unicode="k" horiz-adv-x="1044" d="M166 0v1405h156v-899l481 538h172l-322 -364l365 -680h-172l-303 569l-221 -247v-322h-156z" />
<glyph unicode="l" horiz-adv-x="487" d="M166 0v1405h156v-1405h-156z" />
<glyph unicode="m" horiz-adv-x="1728" d="M166 0v1040h141v-200h2q43 98 126 161.5t192 63.5q84 0 136 -29.5t83 -66.5q27 -31 44 -71t25 -79q18 47 46 88t59 70q53 49 109.5 68.5t121.5 19.5q53 0 114.5 -17.5t115.5 -76.5q29 -35 45 -73t24.5 -76t10.5 -70.5t2 -57.5v-694h-156v655q0 43 -4 101.5t-37 105.5 q-29 41 -67.5 54.5t-77.5 13.5q-47 0 -92.5 -15.5t-90.5 -58.5q-66 -63 -81 -128.5t-15 -127.5v-600h-156v655q0 53 -7 107.5t-42 99.5q-31 41 -69.5 54.5t-83.5 13.5q-41 0 -81 -12.5t-79 -47.5q-37 -33 -57.5 -69.5t-30.5 -73.5t-12 -69.5t-2 -57.5v-600h-156z" />
<glyph unicode="n" horiz-adv-x="1150" d="M166 0v1040h143v-192h4q47 100 135.5 158.5t210.5 58.5q98 0 156.5 -30.5t89.5 -65.5q53 -59 66.5 -135t13.5 -148v-686h-156v647q0 59 -5 115.5t-38 99.5q-16 23 -54 45.5t-105 22.5q-57 0 -106.5 -20.5t-88.5 -55.5q-39 -37 -61.5 -78t-32.5 -83t-13 -78.5t-3 -63.5 v-551h-156z" />
<glyph unicode="o" horiz-adv-x="1105" d="M82 522q0 141 44 250t114 174q47 45 124.5 82t188.5 37t188.5 -37t124.5 -82q70 -66 114 -174t44 -250q0 -141 -44 -249.5t-114 -174.5q-47 -45 -124.5 -81.5t-188.5 -36.5t-188.5 36.5t-124.5 81.5q-70 66 -114 174.5t-44 249.5zM262 522q0 -23 2 -64.5t12.5 -88.5 t30 -95.5t55.5 -85.5q35 -35 83.5 -54t107.5 -19t107.5 19.5t82.5 53.5q37 37 56.5 85.5t30 95.5t12.5 89t2 64q0 23 -2 65t-12.5 89t-30 95t-56.5 85q-35 35 -83 54.5t-107 19.5t-107.5 -19.5t-83.5 -54.5q-37 -37 -56 -85t-29.5 -95t-12.5 -89t-2 -65z" />
<glyph unicode="p" horiz-adv-x="1124" d="M166 -340v1384h143v-196l2 2q14 37 41 75t66 69.5t89 51t116 19.5q98 0 168.5 -33t119.5 -88q68 -76 99.5 -189.5t31.5 -226.5q0 -104 -26.5 -209.5t-83.5 -183.5q-20 -29 -49 -56.5t-67 -50t-86 -35.5t-107 -13q-61 0 -109.5 15t-84.5 40.5t-60.5 58.5t-40.5 70h-6v-504 h-156zM322 414q0 -41 12 -98.5t61 -112.5q43 -47 96.5 -67.5t102.5 -20.5q45 0 102.5 24.5t102.5 98.5q37 59 50 138t13 150q0 131 -23.5 198t-37.5 89q-43 72 -100.5 94.5t-104.5 22.5q-109 0 -188 -82q-57 -61 -71.5 -119.5t-14.5 -95.5v-219z" />
<glyph unicode="q" horiz-adv-x="1140" d="M82 528q0 90 15.5 160t37 120t45 84t41.5 52q61 66 135 93.5t156 27.5q68 0 122 -16.5t101 -55.5q39 -33 61.5 -67.5t26.5 -44.5l62 163h90q-4 -23 -6 -62.5t-2 -61.5v-1260h-156v516h-6q-10 -25 -27.5 -54.5t-54.5 -60.5q-53 -47 -110.5 -64t-123.5 -17 q-90 0 -163.5 34.5t-135.5 120.5q-55 78 -81.5 180.5t-26.5 212.5zM262 526q0 -16 1 -49t7 -74t18.5 -85t35.5 -80q39 -68 92 -95.5t110 -27.5q20 0 49 5t60 19.5t61.5 41t57.5 71.5q23 39 40 93t17 120v147q0 59 -19.5 115.5t-52.5 99.5q-43 57 -96 80t-106 23 q-57 0 -110.5 -25.5t-94.5 -91.5q-43 -66 -56.5 -141.5t-13.5 -145.5z" />
<glyph unicode="r" horiz-adv-x="696" d="M166 0v1044h143v-247h4q14 59 45 113.5t72 88.5q35 29 82 48.5t102 19.5h29.5t30.5 -4v-152h-33q-23 0 -51.5 -4t-61 -16t-66.5 -36t-65 -62q-45 -57 -60 -120t-15 -149v-524h-156z" />
<glyph unicode="s" horiz-adv-x="1001" d="M61 276l156 31q10 -53 34.5 -85t39.5 -44q8 -6 25.5 -18.5t46 -23.5t68.5 -20.5t95 -9.5q33 0 87.5 8.5t95.5 41.5q41 31 51 66.5t10 58.5q0 45 -19.5 73.5t-48 46t-65.5 26.5t-70 15l-157 31q-49 8 -102.5 26.5t-98.5 52.5t-75 85t-30 127q0 72 27 124t68 87 q66 55 146.5 72.5t156.5 17.5q33 0 71.5 -3t79.5 -13.5t81 -31t77 -54.5q31 -29 55.5 -70t38.5 -88l-147 -31q-25 72 -89.5 118t-164.5 46q-70 0 -113 -17.5t-66.5 -42t-31.5 -52t-8 -48.5q0 -43 21.5 -69.5t51 -42t60.5 -21.5t51 -10l141 -27q25 -4 57.5 -11t67.5 -17.5 t69 -27.5t62 -44q29 -29 56.5 -80t27.5 -135q0 -66 -24.5 -121t-77.5 -102q-37 -31 -79 -49.5t-84 -27.5t-81 -11t-69 -2q-109 0 -177.5 17t-111.5 40q-53 27 -107.5 85t-77.5 154z" />
<glyph unicode="t" horiz-adv-x="647" d="M10 918v126h183v263l155 16v-279h236v-126h-236v-617q0 -31 7 -73t42 -74q16 -16 47 -27.5t80 -11.5q29 0 58.5 4t58.5 8v-127q-72 -12 -149 -12q-49 0 -115 12t-115 61q-49 51 -59 114t-10 104v639h-183z" />
<glyph unicode="u" horiz-adv-x="1142" d="M166 395v649h156v-649q0 -16 1 -42.5t6 -57.5t16 -61.5t30 -53.5q27 -33 69.5 -49t87.5 -16q55 0 107.5 23.5t92.5 70.5t64.5 116.5t24.5 163.5v555h156v-1044h-143v207h-5q-43 -117 -131 -172t-190 -55q-92 0 -151.5 31.5t-94.5 70.5q-33 37 -51 80t-28.5 86t-13.5 81 t-3 66z" />
<glyph unicode="v" horiz-adv-x="950" d="M27 1044h180l285 -849h4l284 849h144l-359 -1044h-168z" />
<glyph unicode="w" horiz-adv-x="1415" d="M41 1044h172l215 -780h4l215 780h131l226 -780h4l223 780h143l-309 -1044h-131l-229 770l-3 2l-215 -772h-131z" />
<glyph unicode="x" horiz-adv-x="894" d="M8 0l348 539l-315 505h188l220 -360l227 360h155l-303 -471l359 -573h-189l-262 422l-272 -422h-156z" />
<glyph unicode="y" horiz-adv-x="874" d="M20 1044h181l270 -802l281 802h143l-412 -1142q-16 -47 -40.5 -95.5t-69.5 -91.5q-41 -39 -88 -57t-107 -18q-31 0 -65.5 5t-65.5 15v121q33 -10 57.5 -12t55.5 -2q29 0 58.5 5t57.5 29q29 25 51.5 68t47.5 115l12 34z" />
<glyph unicode="z" horiz-adv-x="894" d="M72 0v125l553 793h-510v126h723v-88l-572 -829h572v-127h-766z" />
<glyph unicode="{" horiz-adv-x="589" d="M96 477v123h10q57 0 88 37t45.5 83t16.5 90t2 60v322q0 35 4 76t25.5 75.5t64.5 58t121 23.5h100v-122h-49q-45 0 -67.5 -12.5t-32.5 -32t-11 -42t-1 -42.5v-332q0 -92 -39 -167t-111 -134v-2q76 -47 113 -128t37 -173v-332q0 -14 2 -36t12 -43.5t31.5 -36.5t60.5 -15h55 v-123h-94q-63 0 -105 17.5t-67.5 48t-37 73.5t-11.5 96v318q0 84 -14.5 137t-37 83t-49 41t-48.5 11h-13z" />
<glyph unicode="|" horiz-adv-x="1036" d="M457 0v1405h123v-1405h-123z" />
<glyph unicode="}" horiz-adv-x="589" d="M16 -225h56q39 0 60.5 15t31.5 36.5t12 43t2 36.5v332q0 92 37 173t113 128v2q-72 59 -111 134t-39 167v332q0 18 -1 39.5t-9 42t-29.5 34t-60.5 13.5h-62v122h113q76 0 117 -26.5t60.5 -63.5t22.5 -76.5t3 -66.5v-322q0 -16 2 -60t16.5 -90t45 -83t87.5 -37h11v-123h-13 q-23 0 -49 -11t-49 -41t-37 -83t-14 -137v-320q0 -41 -8.5 -82t-32 -74.5t-66.5 -55t-114 -21.5h-95v123z" />
<glyph unicode="~" horiz-adv-x="1292" d="M129 506q16 39 47 93t74 91q35 29 81 47.5t93 18.5q16 0 32.5 -2t32.5 -6q29 -6 57.5 -16.5t57.5 -22.5l58 -27q47 -23 96 -44.5t114 -21.5q68 0 117 41q23 18 43.5 46t34.5 57l96 -58q-18 -41 -51 -90t-70 -82q-41 -35 -88 -53t-94 -18q-37 0 -71.5 8t-69.5 22 q-25 10 -49.5 21.5t-48.5 24.5l-56 26q-29 14 -66.5 26.5t-80.5 12.5q-31 0 -58.5 -10t-56.5 -35q-20 -18 -41.5 -50t-38.5 -61z" />
<glyph unicode="&#xa4;" horiz-adv-x="1175" d="M182 391l107 107q-41 53 -53.5 108.5t-12.5 91.5q0 37 12.5 92.5t53.5 108.5l-107 107l94 94l107 -107q27 23 75 46.5t130 23.5t130 -23.5t75 -46.5l106 107l94 -94l-106 -107q41 -53 53 -108.5t12 -92.5t-12 -92t-53 -108l106 -107l-94 -94l-106 106q-53 -45 -108.5 -57 t-96.5 -12t-96.5 12t-108.5 57l-107 -106zM358 698q0 -47 18.5 -89t49.5 -72.5t73 -49t89 -18.5t89 18.5t72.5 49t49 72.5t18.5 89t-18.5 89t-49 73t-72.5 49.5t-89 18.5t-89 -18.5t-73 -49.5t-49.5 -73t-18.5 -89z" />
<glyph unicode="&#xa6;" horiz-adv-x="1036" d="M457 0v563h123v-563h-123zM457 842v563h123v-563h-123z" />
<glyph unicode="&#xa7;" horiz-adv-x="1253" d="M141 -80l181 27q41 -98 125.5 -147.5t187.5 -49.5q63 0 117.5 16.5t94.5 46t62.5 68.5t22.5 84q0 55 -23.5 91t-59.5 59.5t-78 37t-79 23.5l-164 43q-53 14 -114.5 32.5t-112.5 52.5t-85 87t-34 135q0 57 18.5 105.5t47 87.5t64.5 67.5t71 47.5q-80 41 -124 111.5 t-44 162.5q0 53 19.5 109.5t65.5 102.5t122 75.5t186 29.5q33 0 93.5 -6t125 -33.5t124 -83t93.5 -151.5l-155 -16q-25 51 -60.5 82.5t-74.5 47t-76 20.5t-60 5q-57 0 -99 -15t-69.5 -39t-41 -52.5t-13.5 -53.5q0 -57 30 -96t72 -64.5t90 -41t85 -27.5l127 -41 q43 -14 92 -33.5t91 -51.5t68.5 -80t26.5 -117q0 -51 -14 -95.5t-38 -81t-53.5 -66.5t-60.5 -52q98 -39 149.5 -119t51.5 -176q0 -66 -31.5 -132.5t-93 -119.5t-152 -87t-206.5 -34q-37 0 -102.5 7t-137.5 37t-139.5 91.5t-108.5 169.5zM354 582q0 -55 23.5 -89t60.5 -56.5 t80 -37t84 -26.5l154 -49q78 35 113.5 97t35.5 120q0 45 -21.5 75.5t-53 51t-67.5 34t-67 23.5l-180 63q-18 -8 -46 -25.5t-53.5 -43t-44 -60t-18.5 -77.5z" />
<glyph unicode="&#xa9;" horiz-adv-x="1576" d="M47 702q0 154 58.5 289t159 235.5t235.5 159t288 58.5q154 0 289 -58.5t235.5 -159t159 -235.5t58.5 -289t-58.5 -288.5t-159 -235t-235.5 -159t-289 -58.5t-288.5 58.5t-235 159t-159 235t-58.5 288.5zM154 702q0 -131 50 -246.5t136 -201.5t201.5 -136t246.5 -50 t247 50t202 136t136 201.5t50 246.5t-50 247t-136 202t-201.5 136t-247.5 50q-131 0 -246.5 -50t-201.5 -136t-136 -201.5t-50 -247.5zM401 723q0 123 37 200.5t82 123.5q31 31 94.5 66.5t167.5 35.5q70 0 132.5 -22.5t115.5 -79.5q35 -39 54.5 -82t33.5 -99l-127 -24 q-12 35 -21 62.5t-32 58.5q-29 43 -63.5 61t-94.5 18q-43 0 -83 -13t-74 -54q-23 -27 -37.5 -61.5t-23.5 -73.5t-13 -76t-4 -68q0 -61 9 -106t22.5 -77t26.5 -51.5t20 -27.5q35 -41 73.5 -56.5t77.5 -15.5q49 0 92 20.5t70 53.5q25 29 36 65t23 72l123 -26 q-12 -51 -36.5 -101.5t-59.5 -89.5q-53 -59 -114.5 -79.5t-133.5 -20.5q-80 0 -141.5 25.5t-108.5 76.5q-59 63 -91 158.5t-32 206.5z" />
<glyph unicode="&#xab;" horiz-adv-x="722" d="M86 526l178 291h90l-108 -291l108 -299h-90zM354 526l178 291h91l-109 -291l109 -299h-91z" />
<glyph unicode="&#xac;" d="M84 657v134h1061v-553h-133v419h-928z" />
<glyph unicode="&#xad;" horiz-adv-x="641" d="M102 463v127h437v-127h-437z" />
<glyph unicode="&#xae;" horiz-adv-x="1576" d="M47 702q0 154 58.5 289t159 235.5t235.5 159t288 58.5q154 0 289 -58.5t235.5 -159t159 -235.5t58.5 -289t-58.5 -288.5t-159 -235t-235.5 -159t-289 -58.5t-288.5 58.5t-235 159t-159 235t-58.5 288.5zM154 702q0 -131 50 -246.5t136 -201.5t201.5 -136t246.5 -50 t247 50t202 136t136 201.5t50 246.5t-50 247t-136 202t-201.5 136t-247.5 50q-131 0 -246.5 -50t-201.5 -136t-136 -201.5t-50 -247.5zM469 272v861h362q78 0 124 -18.5t69 -35.5q51 -35 75.5 -87t24.5 -103q0 -39 -16 -85t-49 -79q-23 -23 -52.5 -38t-45.5 -19l176 -396 h-140l-166 367h-235v-367h-127zM596 739h221q37 0 71 8.5t62 38.5q23 23 31 49.5t8 55.5q0 63 -45 100q-29 25 -60.5 30t-52.5 5h-235v-287z" />
<glyph unicode="&#xb0;" horiz-adv-x="817" d="M102 1118q0 63 25 119.5t65.5 97.5t97 65.5t120.5 24.5q63 0 119.5 -24.5t97.5 -65.5t65.5 -97t24.5 -120q0 -63 -24.5 -119.5t-65.5 -97.5t-97.5 -65.5t-119.5 -24.5t-120 24.5t-97.5 65.5t-65.5 97.5t-25 119.5zM225 1118q0 -78 53.5 -131t131.5 -53t131 53t53 131 t-53.5 131.5t-130.5 53.5q-78 0 -131.5 -53.5t-53.5 -131.5z" />
<glyph unicode="&#xb1;" horiz-adv-x="1316" d="M129 0v133h1059v-133h-1059zM129 698v133h463v463h133v-463h463v-133h-463v-462h-133v462h-463z" />
<glyph unicode="&#xb6;" horiz-adv-x="1185" d="M102 918q0 115 43 208t109 156q45 45 92 69.5t95 37t96.5 14.5t97.5 2h438v-133h-119v-1657h-133v1657h-166v-1657h-133v825q-92 4 -159.5 36t-110.5 73q-68 61 -109 155.5t-41 213.5z" />
<glyph unicode="&#xb7;" horiz-adv-x="528" d="M152 475v232h225v-232h-225z" />
<glyph unicode="&#xbb;" horiz-adv-x="722" d="M100 227l109 299l-109 291h90l179 -291l-179 -299h-90zM369 227l108 299l-108 291h90l178 -291l-178 -299h-90z" />
<glyph unicode="&#x2000;" horiz-adv-x="775" />
<glyph unicode="&#x2001;" horiz-adv-x="1550" />
<glyph unicode="&#x2002;" horiz-adv-x="775" />
<glyph unicode="&#x2003;" horiz-adv-x="1550" />
<glyph unicode="&#x2004;" horiz-adv-x="516" />
<glyph unicode="&#x2005;" horiz-adv-x="387" />
<glyph unicode="&#x2006;" horiz-adv-x="258" />
<glyph unicode="&#x2007;" horiz-adv-x="258" />
<glyph unicode="&#x2008;" horiz-adv-x="193" />
<glyph unicode="&#x2009;" horiz-adv-x="310" />
<glyph unicode="&#x200a;" horiz-adv-x="86" />
<glyph unicode="&#x2010;" horiz-adv-x="641" d="M102 463v127h437v-127h-437z" />
<glyph unicode="&#x2011;" horiz-adv-x="641" d="M102 463v127h437v-127h-437z" />
<glyph unicode="&#x2012;" horiz-adv-x="641" d="M102 463v127h437v-127h-437z" />
<glyph unicode="&#x2013;" horiz-adv-x="1445" d="M211 463v127h1024v-127h-1024z" />
<glyph unicode="&#x2014;" horiz-adv-x="2048" d="M102 463v127h1844v-127h-1844z" />
<glyph unicode="&#x2018;" horiz-adv-x="514" d="M152 950v209l137 246h73l-102 -246h102v-209h-210z" />
<glyph unicode="&#x2019;" horiz-adv-x="514" d="M152 950l102 246h-102v209h210v-209l-137 -246h-73z" />
<glyph unicode="&#x201a;" horiz-adv-x="544" d="M152 -248l120 248h-84v203h205v-176l-164 -275h-77z" />
<glyph unicode="&#x201c;" horiz-adv-x="854" d="M152 956v177l163 272h78l-121 -246h84v-203h-204zM461 956v177l164 272h77l-120 -246h84v-203h-205z" />
<glyph unicode="&#x201d;" horiz-adv-x="856" d="M152 956l120 246h-84v203h205v-176l-164 -273h-77zM463 954l121 248h-84v203h205v-176l-164 -275h-78z" />
<glyph unicode="&#x201e;" horiz-adv-x="856" d="M152 -248l120 248h-84v203h205v-176l-164 -275h-77zM463 -248l121 248h-84v203h205v-176l-164 -275h-78z" />
<glyph unicode="&#x2022;" d="M266 702q0 72 28 135.5t75 110.5t110 75t135 28t135.5 -28t110.5 -75t75 -110.5t28 -135.5t-28 -135t-75 -110t-110.5 -75t-135.5 -28t-135 28t-110 75t-75 110.5t-28 134.5z" />
<glyph unicode="&#x2026;" horiz-adv-x="1892" d="M152 0v231h225v-231h-225zM834 0v231h225v-231h-225zM1516 0v231h225v-231h-225z" />
<glyph unicode="&#x202f;" horiz-adv-x="310" />
<glyph unicode="&#x2039;" horiz-adv-x="454" d="M86 526l178 291h90l-108 -291l108 -299h-90z" />
<glyph unicode="&#x203a;" horiz-adv-x="454" d="M100 227l109 299l-109 291h90l179 -291l-179 -299h-90z" />
<glyph unicode="&#x205f;" horiz-adv-x="387" />
<glyph unicode="&#x2122;" horiz-adv-x="1685" d="M20 1303v102h619v-102h-246v-715h-127v715h-246zM737 588v817h181l249 -621l244 621h178v-817h-127v649l-260 -649h-90l-262 649v-649h-113z" />
<glyph unicode="&#xe000;" horiz-adv-x="1044" d="M0 0v1044h1044v-1044h-1044z" />
</font>
</defs>
</svg>
